<?xml version="1.0" standalone="no"?>
<!DOCTYPE svg PUBLIC "-//W3C//DTD SVG 20010904//EN"
 "http://www.w3.org/TR/2001/REC-SVG-20010904/DTD/svg10.dtd">
<svg version="1.0" xmlns="http://www.w3.org/2000/svg"
 width="386.000000pt" height="386.000000pt" viewBox="0 0 386.000000 386.000000"
 preserveAspectRatio="xMidYMid meet">

<g transform="translate(0.000000,386.000000) scale(0.100000,-0.100000)"
fill="#000000" stroke="none">
<path d="M0 1930 l0 -1930 1930 0 1930 0 0 1930 0 1930 -1930 0 -1930 0 0
-1930z m825 585 c161 -42 298 -179 341 -339 28 -105 14 -238 -37 -343 -35 -72
-141 -174 -219 -211 -88 -41 -157 -52 -332 -52 l-148 0 0 -119 c0 -99 -3 -120
-16 -125 -20 -8 -238 -8 -258 0 -14 6 -16 68 -16 598 0 326 3 596 7 599 3 4
144 7 313 7 242 0 318 -3 365 -15z m710 -590 l0 -600 -129 -3 c-86 -2 -133 1
-142 9 -12 10 -14 108 -14 589 0 318 3 586 6 594 6 14 25 16 143 14 l136 -3 0
-600z m837 590 c96 -20 189 -67 256 -130 l57 -54 -95 -95 c-52 -53 -100 -96
-106 -96 -6 0 -31 16 -55 35 -152 121 -389 65 -476 -113 -38 -79 -39 -182 -2
-262 55 -116 159 -184 284 -184 84 -1 131 14 191 60 24 19 50 34 57 34 7 0 55
-43 107 -96 l95 -96 -55 -49 c-74 -67 -175 -116 -280 -135 -362 -65 -692 191
-717 557 -12 176 47 329 178 460 152 152 349 209 561 164z m1196 -48 c70 -37
128 -97 161 -166 22 -48 26 -69 26 -146 0 -91 -12 -132 -60 -205 -16 -25 -16
-28 8 -63 93 -137 70 -326 -53 -441 -98 -91 -93 -91 -512 -94 l-368 -3 0 576
0 576 373 -3 372 -3 53 -28z"/>
<path d="M200 1926 l0 -546 85 0 84 0 3 123 3 122 210 6 c186 5 217 8 268 28
101 40 190 122 236 221 23 49 26 67 26 170 0 104 -3 120 -27 173 -38 80 -126
170 -207 210 l-66 32 -307 3 -308 3 0 -545z m583 360 c89 -32 154 -115 164
-208 8 -77 -11 -132 -64 -189 -69 -74 -95 -80 -318 -77 l-190 3 -3 229 c-2
160 1 233 9 242 16 19 347 19 402 0z"/>
<path d="M432 2053 l3 -188 160 0 c178 0 197 6 253 69 76 87 44 234 -60 285
-39 19 -62 21 -201 21 l-157 0 2 -187z"/>
<path d="M1312 1928 l3 -543 85 0 85 0 3 543 2 542 -90 0 -90 0 2 -542z"/>
<path d="M2110 2459 c-138 -27 -295 -152 -363 -291 -178 -360 89 -787 493
-788 111 0 256 50 335 115 l30 25 -61 61 -61 61 -46 -30 c-68 -43 -123 -55
-224 -50 -71 4 -99 10 -142 32 -181 93 -255 304 -172 492 27 61 118 149 187
181 111 50 263 38 355 -29 l42 -30 61 62 61 61 -35 30 c-46 39 -141 84 -208
98 -61 13 -187 13 -252 0z"/>
<path d="M3010 2156 l0 -116 205 0 c221 0 257 6 289 51 27 39 21 103 -13 141
l-29 33 -226 3 -226 3 0 -115z"/>
<path d="M3012 1698 c2 -62 6 -112 11 -110 4 1 104 2 223 2 l216 0 29 29 c41
42 41 107 0 153 l-29 33 -226 3 -227 3 3 -113z"/>
</g>
</svg>
